# xmcd CD database file
#
# Track frame offsets:
#	150
#	24910
#	50755
#	66072
#	82257
#	111050
#	137580
#	173507
#	202540
#	230445
#	261857
#	297447
#	322487
#
# Disc length: 4786 seconds
#
# Revision: 3
# Processed by: cddbd v1.5.2PL0 Copyright (c) Steve Scherf et al.
# Submitted via: CDex 1.51
#
DISCID=b812b00d
DTITLE=Gov't Mule - The Deep End Vol. 2
DYEAR=2002
DGENRE=Blues Rock
TTITLE0=Trying Not To Fall
TTITLE1=Time To Confess
TTITLE2=Greasy Granny's Gopher Gravy (Part 1)
TTITLE3=Greasy Granny's Gopher Gravy (Part 2)
TTITLE4=What Is Hip?
TTITLE5=World Of Confusion
TTITLE6=Hammer And Nails
TTITLE7=Slow Happy Boys
TTITLE8=Sun Dance
TTITLE9=Lay Of The Sunflower
TTITLE10=Catfish Blues
TTITLE11=Which Way Do We Run?
TTITLE12=Babylon Turnpike
EXTD=YEAR: 2002
EXTT0=
EXTT1=
EXTT2=
EXTT3=
EXTT4=
EXTT5=
EXTT6=
EXTT7=
EXTT8=
EXTT9=
EXTT10=
EXTT11=
EXTT12=
PLAYORDER=
